<?xml version="1.0" standalone="no"?>
<!DOCTYPE svg PUBLIC "-//W3C//DTD SVG 20010904//EN"
 "http://www.w3.org/TR/2001/REC-SVG-20010904/DTD/svg10.dtd">
<svg version="1.0" xmlns="http://www.w3.org/2000/svg"
 width="128.000000pt" height="128.000000pt" viewBox="0 0 128.000000 128.000000"
 preserveAspectRatio="xMidYMid meet">

<g transform="translate(0.000000,128.000000) scale(0.100000,-0.100000)"
fill="#000000" stroke="none">
<path d="M346 1254 c-3 -9 -6 -34 -6 -56 0 -35 2 -39 15 -28 9 7 15 29 15 50
0 21 6 41 13 43 6 3 2 6 -9 6 -12 1 -25 -6 -28 -15z m11 -56 c-2 -13 -4 -5 -4
17 -1 22 1 32 4 23 2 -10 2 -28 0 -40z"/>
<path d="M460 1227 c57 -28 69 -40 105 -99 22 -37 75 -119 117 -182 42 -63 86
-131 97 -153 10 -21 27 -47 36 -58 37 -46 -56 110 -148 250 -55 83 -106 165
-114 183 -11 27 -27 40 -78 63 -86 39 -97 36 -15 -4z"/>
<path d="M334 1136 c-3 -7 -3 -40 -1 -72 l3 -59 4 70 c3 58 5 48 10 -60 l6
-130 2 133 c1 85 -2 132 -8 132 -6 0 -13 -6 -16 -14z"/>
<path d="M494 1104 c3 -9 6 -38 6 -65 0 -27 4 -49 8 -49 4 0 6 17 5 38 l-4 37
17 -30 c9 -16 25 -40 36 -52 11 -12 21 -33 22 -46 0 -14 4 -23 8 -21 3 2 18
-16 32 -41 15 -25 29 -45 32 -45 7 0 -65 128 -93 166 -12 16 -32 51 -43 77
-12 26 -23 47 -27 47 -3 0 -2 -7 1 -16z"/>
<path d="M315 865 c-4 -75 -5 -138 -2 -141 2 -3 8 56 12 131 4 75 5 138 2 141
-2 3 -8 -56 -12 -131z"/>
<path d="M513 890 c0 -25 2 -35 4 -22 2 12 2 32 0 45 -2 12 -4 2 -4 -23z"/>
<path d="M610 795 c13 -14 26 -25 28 -25 3 0 -5 11 -18 25 -13 14 -26 25 -28
25 -3 0 5 -11 18 -25z"/>
<path d="M660 812 c0 -4 7 -18 16 -30 15 -22 15 -25 -2 -45 -18 -21 -18 -22 0
-5 18 16 20 15 38 -8 11 -13 16 -29 12 -35 -4 -7 -3 -9 4 -5 6 3 14 1 18 -5 5
-9 -14 -11 -77 -6 -46 4 -96 7 -111 7 -23 0 -27 5 -31 33 -3 23 -4 18 -5 -18
-1 -32 2 -45 7 -36 7 11 30 12 112 6 57 -3 113 -9 124 -12 20 -5 20 -5 -1 18
-11 13 -38 52 -58 87 -36 59 -46 71 -46 54z"/>
<path d="M343 720 c0 -41 2 -58 4 -37 2 20 2 54 0 75 -2 20 -4 3 -4 -38z"/>
<path d="M689 693 c-13 -16 -12 -17 4 -4 9 7 17 15 17 17 0 8 -8 3 -21 -13z"/>
<path d="M843 685 c9 -16 23 -39 32 -50 9 -11 7 -2 -6 20 -27 49 -47 72 -26
30z"/>
<path d="M303 640 c0 -36 2 -50 4 -32 2 17 2 47 0 65 -2 17 -4 3 -4 -33z"/>
<path d="M900 591 c5 -11 15 -23 21 -27 6 -3 3 5 -6 20 -20 30 -30 35 -15 7z"/>
<path d="M342 385 l-2 -220 -34 -27 -35 -28 -4 48 c-3 43 -4 42 -5 -14 -3 -80
7 -89 93 -79 36 3 65 11 65 16 0 5 -12 6 -27 2 -49 -14 -118 -10 -118 7 0 18
73 69 100 70 16 0 17 2 5 9 -8 6 -18 8 -22 5 -4 -3 -9 93 -11 213 l-2 218 -3
-220z"/>
<path d="M293 525 c0 -27 2 -38 4 -22 2 15 2 37 0 50 -2 12 -4 0 -4 -28z"/>
<path d="M945 520 c9 -16 18 -30 21 -30 2 0 -2 14 -11 30 -9 17 -18 30 -21 30
-2 0 2 -13 11 -30z"/>
<path d="M837 483 c-3 -3 -57 -5 -119 -4 -137 1 -178 -5 -178 -28 0 -14 2 -14
10 -1 7 12 35 15 135 16 68 1 136 5 150 8 14 4 25 4 25 1 0 -10 -81 -45 -147
-64 -37 -11 -62 -20 -54 -20 27 -2 133 30 164 49 34 21 57 26 57 11 0 -16 82
-162 88 -157 2 3 0 11 -5 18 -6 7 -27 46 -48 86 -28 54 -35 76 -26 81 7 5 0 8
-17 9 -17 0 -32 -2 -35 -5z"/>
<path d="M978 464 c10 -20 42 -52 42 -42 0 3 -12 18 -26 34 -17 19 -22 22 -16
8z"/>
<path d="M282 374 c-1 -39 -4 -87 -7 -105 l-5 -34 10 33 c6 18 9 65 7 105 l-3
72 -2 -71z"/>
<path d="M1035 386 c10 -16 26 -44 37 -63 11 -18 25 -33 31 -33 9 0 9 2 1 8
-6 4 -18 21 -27 37 -9 17 -26 41 -38 55 l-21 25 17 -29z"/>
<path d="M551 351 c2 -29 3 -31 6 -9 3 18 11 28 26 30 20 3 19 4 -5 9 -27 6
-28 4 -27 -30z"/>
<path d="M618 383 c7 -3 16 -2 19 1 4 3 -2 6 -13 5 -11 0 -14 -3 -6 -6z"/>
<path d="M871 336 c2 -2 15 -9 29 -15 24 -11 24 -11 6 3 -16 13 -49 24 -35 12z"/>
<path d="M560 254 l0 -50 -82 -17 c-46 -9 -63 -14 -38 -12 25 3 56 8 70 11
l25 7 -24 -20 c-13 -11 -21 -24 -18 -30 7 -11 87 -7 119 7 18 8 16 9 -14 4
-103 -16 -124 -8 -61 25 36 18 37 20 34 67 -4 65 -11 70 -11 8z"/>
<path d="M985 280 c-16 -4 -55 -17 -85 -30 -68 -27 -117 -43 -198 -66 -34 -9
-61 -19 -59 -21 3 -2 37 5 77 16 126 35 118 34 90 16 -14 -9 -18 -14 -10 -11
8 3 40 12 70 21 77 23 141 47 137 51 -2 2 -30 -5 -62 -16 -33 -11 -63 -19 -69
-17 -5 2 17 13 50 24 95 34 108 37 99 23 -6 -9 -4 -11 6 -4 8 4 20 9 27 10 8
2 16 5 20 8 8 8 -57 6 -93 -4z"/>
<path d="M758 173 c7 -3 16 -2 19 1 4 3 -2 6 -13 5 -11 0 -14 -3 -6 -6z"/>
<path d="M685 155 c-40 -19 -16 -19 26 0 19 8 27 14 19 14 -8 0 -28 -7 -45
-14z"/>
<path d="M515 109 c-38 -10 -74 -21 -80 -24 -21 -9 73 9 130 26 81 24 38 22
-50 -2z"/>
</g>
</svg>
